<svg width="26" height="40" viewBox="0 0 26 40" fill="none" xmlns="http://www.w3.org/2000/svg">
<path d="M12.9468 40C12.5068 40 12.1602 39.6533 12.1602 39.2133C12.1602 38.7733 12.5068 38.4267 12.9468 38.4267C13.3735 38.4267 13.7335 38.7733 13.7335 39.2133C13.7335 39.6533 13.3735 40 12.9468 40Z" fill="white"/>
<path d="M25.28 28.8533V25.7333V25.72C25.24 23.5467 24.4267 21.9467 22.7867 20.8133C21.4267 19.8667 19.7067 19.4133 18.04 18.96C17.56 18.8267 17.1067 18.7067 16.6667 18.5733V16.9333C18.4533 15.7333 19.6267 13.6933 19.6267 11.3867V10.5467C19.72 10.48 19.8 10.4 19.8933 10.32C20.7733 9.44 20.84 8.06667 20.12 7.10667V3.96C20.12 1.77333 18.3467 0 16.16 0H9.72C7.53333 0 5.74667 1.77333 5.74667 3.96V7.09333C5.02667 8.06667 5.10667 9.44 5.98667 10.32C6.06667 10.4 6.14667 10.4667 6.24 10.5467V11.3867C6.24 13.6933 7.41333 15.7333 9.2 16.9333V18.5867C8.76 18.72 8.30667 18.84 7.82667 18.9733C6.16 19.4267 4.44 19.88 3.08 20.8267C1.44 21.96 0.626667 23.56 0.586667 25.7333V25.7467V28.8667C0.226667 29.2133 0 29.72 0 30.28V32.5067C0 33.6267 0.906667 34.5333 2.02667 34.5333H3.97333C4.08 34.5333 4.17333 34.5333 4.28 34.52V38.16C4.28 39.1733 5.10667 40 6.12 40H9.42667C9.85333 40 10.2133 39.6533 10.2133 39.2133C10.2133 38.7733 9.86667 38.4267 9.42667 38.4267H6.12C5.97333 38.4267 5.84 38.2933 5.84 38.1467V33.9067C6.61333 33.3333 7.12 32.4133 7.12 31.3733C7.12 30.3333 6.61333 29.4133 5.84 28.84V26.4933C5.84 26.3467 5.97333 26.2133 6.12 26.2133H9.76V30.9733C9.76 31.2667 9.92 31.5333 10.1733 31.6667C10.2933 31.7333 10.4133 31.76 10.5467 31.76C10.6933 31.76 10.8533 31.72 10.9867 31.6267L12.9333 30.3067L14.88 31.6267C15.12 31.7867 15.4267 31.8 15.68 31.6667C15.9333 31.5333 16.0933 31.2667 16.0933 30.9733V26.2133H19.7333C19.88 26.2133 20.0133 26.3467 20.0133 26.4933V28.84C19.24 29.4133 18.7333 30.3333 18.7333 31.3733C18.7333 32.4133 19.24 33.3333 20.0133 33.9067V38.1467C20.0133 38.2933 19.88 38.4267 19.7333 38.4267H16.4267C16 38.4267 15.64 38.7733 15.64 39.2133C15.64 39.6533 16.0133 40 16.44 40H19.7467C20.76 40 21.5867 39.1733 21.5867 38.16V34.52C21.68 34.5333 21.7867 34.5333 21.8933 34.5333H23.84C24.96 34.5333 25.8667 33.6267 25.8667 32.5067V30.28C25.88 29.72 25.6533 29.2133 25.28 28.8533ZM7.32 3.96C7.32 2.64 8.4 1.56 9.72 1.56H16.16C17.48 1.56 18.56 2.64 18.56 3.96V5.70667C16.92 4.56 14.9733 3.94667 12.9333 3.94667C10.8933 3.94667 8.94667 4.57333 7.32 5.72V3.96ZM7.09333 9.21333C6.74667 8.86667 6.74667 8.29333 7.09333 7.94667C8.65333 6.37333 10.7333 5.52 12.9333 5.52C15.1333 5.52 17.2267 6.38667 18.7867 7.94667C19.1333 8.29333 19.1333 8.86667 18.7867 9.21333C18.44 9.56 17.8667 9.56 17.52 9.21333C16.2933 7.98667 14.6667 7.30667 12.9333 7.30667C11.2 7.30667 9.58667 7.98667 8.36 9.21333C8.01333 9.56 7.44 9.56 7.09333 9.21333ZM7.8 11.3733V11.0267C8.4 11 9 10.7733 9.45333 10.3067C10.3867 9.37333 11.6133 8.86667 12.9333 8.86667C14.2533 8.86667 15.48 9.37333 16.4133 10.3067C16.8667 10.76 17.4667 11 18.0667 11.0267V11.3733C18.0667 14.2 15.76 16.5067 12.9333 16.5067C10.1067 16.5067 7.8 14.2133 7.8 11.3733ZM15.12 17.7067V19.16C15.12 20.36 14.1467 21.3333 12.9467 21.3333C11.7467 21.3333 10.7733 20.36 10.7733 19.16V17.7067C11.4533 17.9467 12.1867 18.0667 12.9467 18.0667C13.6933 18.08 14.4267 17.9467 15.12 17.7067ZM2.02667 32.9733C1.77333 32.9733 1.56 32.76 1.56 32.5067V30.28C1.56 30.0267 1.77333 29.8133 2.02667 29.8133H3.97333C4.84 29.8133 5.56 30.52 5.56 31.4C5.56 32.28 4.85333 32.9867 3.97333 32.9867H2.02667V32.9733ZM14.5467 29.52L13.3733 28.7333C13.1067 28.56 12.76 28.56 12.4933 28.7333L11.3333 29.52V26.24H14.5467V29.52ZM19.7467 24.6667H6.12C5.10667 24.6667 4.28 25.4933 4.28 26.5067V28.2533C4.18667 28.24 4.08 28.24 3.97333 28.24H2.14667V25.7333C2.17333 24.0933 2.74667 22.9333 3.96 22.0933C5.10667 21.3067 6.69333 20.88 8.22667 20.4667C8.58667 20.3733 8.96 20.2667 9.33333 20.16C9.77333 21.7333 11.2267 22.88 12.9333 22.88C14.64 22.88 16.0933 21.72 16.5333 20.16C16.9067 20.2667 17.2667 20.36 17.64 20.4667C19.1733 20.88 20.76 21.3067 21.9067 22.0933C23.12 22.9333 23.6933 24.08 23.72 25.7333V28.24H21.8933C21.7867 28.24 21.6933 28.24 21.5867 28.2533V26.5067C21.6 25.4933 20.7733 24.6667 19.7467 24.6667ZM24.3067 32.4933C24.3067 32.7467 24.0933 32.96 23.84 32.96H21.8933C21.64 32.96 21.4 32.8933 21.1867 32.7867C21.1733 32.7733 21.1467 32.7733 21.1333 32.76C20.64 32.4933 20.3067 31.9733 20.3067 31.3733C20.3067 30.5067 21.0133 29.7867 21.8933 29.7867H23.84C24.0933 29.7867 24.3067 30 24.3067 30.2533V32.4933Z" fill="white"/>
</svg>
