<svg width="35" height="35" viewBox="0 0 35 35" fill="none" xmlns="http://www.w3.org/2000/svg">
<path d="M32.5054 24.905C32.3374 24.779 32.1554 24.639 31.9874 24.4989C31.1053 23.7849 30.1672 23.1268 29.2571 22.4967C29.0751 22.3707 28.8791 22.2307 28.697 22.1047C27.5349 21.2926 26.4848 20.8866 25.5047 20.8866C24.1746 20.8866 23.0125 21.6287 22.0604 23.0708C21.6403 23.7149 21.1223 24.0229 20.4922 24.0229C20.1142 24.0229 19.6941 23.9109 19.2321 23.7009C15.4797 21.9927 12.7915 19.3884 11.2653 15.9441C10.4812 14.2779 10.7192 13.1998 12.0354 12.3037C12.7774 11.7997 14.1496 10.8616 14.0516 9.06941C13.9396 7.0392 9.44512 0.920592 7.55493 0.220522C6.75685 -0.0735073 5.91676 -0.0735073 5.04868 0.220522C2.87846 0.948595 1.3103 2.22272 0.540226 3.93089C-0.21585 5.56906 -0.173846 7.50125 0.638235 9.50345C3.00447 15.3 6.3228 20.3545 10.5092 24.527C14.6116 28.6154 19.6381 31.9477 25.4767 34.4679C26.0088 34.692 26.5548 34.818 26.9609 34.902C27.1009 34.93 27.2129 34.958 27.2969 34.986C27.3389 35 27.3949 35 27.4369 35H27.4789C30.2232 35 33.5135 32.4937 34.5356 29.6375C35.4177 27.1312 33.7935 25.8991 32.5054 24.905Z" fill="white"/>
</svg>
