<svg width="35" height="35" viewBox="0 0 35 35" fill="none" xmlns="http://www.w3.org/2000/svg">
<path d="M28.4282 26.6561C28.5286 26.7565 28.6615 26.8068 28.7945 26.8068C28.9274 26.8068 29.0603 26.7565 29.1607 26.6561C29.3615 26.4553 29.3615 26.1274 29.1607 25.9266L28.2687 25.0346C28.0679 24.8338 27.74 24.8338 27.5392 25.0346C27.3383 25.2354 27.3383 25.5633 27.5392 25.7641L28.4282 26.6561Z" fill="#1D0E23"/>
<path d="M34.3295 31.0954L30.5371 27.303C30.3363 27.1021 30.0084 27.1021 29.8076 27.303C29.6067 27.5038 29.6067 27.8316 29.8076 28.0325L33.6 31.8249C34.0903 32.3152 34.0903 33.1097 33.6 33.6C33.1097 34.0873 32.3152 34.0903 31.8249 33.6L22.0544 23.8266L23.8266 22.0544L26.1717 24.3966C26.3726 24.5975 26.7004 24.5975 26.9013 24.3966C27.1021 24.1958 27.1021 23.8679 26.9013 23.6671L24.1928 20.9587C23.992 20.7578 23.6641 20.7578 23.4633 20.9587L23.2034 21.2186L21.8831 19.8983C23.5489 17.8013 24.5502 15.1519 24.5502 12.2722C24.5502 5.50549 19.0418 0 12.2751 0C9.0557 0 6.01646 1.23755 3.71266 3.47932C3.50886 3.67722 3.50295 4.00506 3.7038 4.21181C3.90169 4.41561 4.22954 4.42152 4.43333 4.22067C6.54219 2.16498 9.32743 1.03376 12.2751 1.03376C18.4717 1.03376 23.5165 6.07553 23.5165 12.2751C23.5165 18.4747 18.4717 23.5165 12.2751 23.5165C6.07848 23.5165 1.03376 18.4717 1.03376 12.2751C1.03376 10.1692 1.61857 8.11646 2.72616 6.3384C2.87679 6.0962 2.80295 5.77722 2.56076 5.62658C2.31857 5.47595 1.99958 5.54979 1.84895 5.79198C0.640928 7.73249 0 9.97426 0 12.2751C0 19.0447 5.50549 24.5502 12.2751 24.5502C15.1549 24.5502 17.8042 23.5519 19.9013 21.8831L21.2215 23.2034L20.9616 23.4633C20.7608 23.6641 20.7608 23.992 20.9616 24.1928L31.0983 34.3295C31.5443 34.7755 32.1291 35 32.7169 35C33.3017 35 33.8895 34.7785 34.3354 34.3295C35.2215 33.4376 35.2215 31.9873 34.3295 31.0954ZM20.684 21.2038C20.8641 21.0354 21.0354 20.8612 21.2068 20.681L22.4738 21.9481L21.9511 22.4709L20.684 21.2038Z" fill="#1D0E23"/>
<path d="M12.2751 22.7781C18.067 22.7781 22.778 18.0671 22.778 12.2751C22.778 6.48313 18.0641 1.77216 12.2751 1.77216C6.48602 1.77216 1.77209 6.48313 1.77209 12.2751C1.77209 18.0671 6.48307 22.7781 12.2751 22.7781ZM3.95184 7.76498L5.26619 7.26878L5.31049 10.1603L3.38771 9.0114C3.54425 8.58017 3.73328 8.16372 3.95184 7.76498ZM8.35859 20.8937L13.6426 16.3481L17.1396 18.4392L9.95648 21.4549C9.40121 21.316 8.86956 21.1241 8.35859 20.8937ZM17.2194 14.4135L17.6299 17.5266L14.6497 15.7456L17.2194 14.4135ZM6.3472 10.4675L6.29994 7.44304L10.24 9.79705L6.3472 10.4675ZM11.3506 10.6565L12.6561 14.5553L7.30121 11.3506L11.3506 10.6565ZM5.25437 11.3329L4.02273 16.9063C3.24889 15.5359 2.80585 13.9557 2.80585 12.2751C2.80585 11.5013 2.90036 10.7511 3.07758 10.0304L5.25437 11.3329ZM4.81429 18.0966L6.18771 11.8911L12.7063 15.7899L7.378 20.3738C6.3915 19.7772 5.52315 19.0004 4.81429 18.0966ZM12.2751 2.80591C17.497 2.80591 21.7442 7.05317 21.7442 12.2751C21.7442 17.497 17.494 21.7443 12.2751 21.7443C12.1687 21.7443 12.0624 21.7384 11.959 21.7354L18.4835 18.9945C18.6991 18.903 18.8261 18.6814 18.7966 18.4511L18.1497 13.5481C18.1291 13.3916 18.0375 13.2527 17.9016 13.173L16.3156 12.2249C16.0704 12.0772 15.7544 12.157 15.6067 12.4021C15.459 12.6473 15.5388 12.9633 15.7839 13.111L16.5755 13.5835L13.8877 14.9747L12.6324 11.2266L13.3236 11.6401C13.4063 11.6903 13.4978 11.7139 13.5894 11.7139C13.7666 11.7139 13.9379 11.6253 14.0324 11.4629C14.1801 11.2177 14.1004 10.9017 13.8552 10.754L6.03707 6.08144C5.90121 6.00169 5.73581 5.98692 5.58813 6.04304L4.95015 6.28524C6.68686 4.16161 9.32442 2.80591 12.2751 2.80591Z" fill="#1D0E23"/>
<path d="M14.5258 4.91476C14.9097 5.0329 15.2878 5.18353 15.6511 5.36075C15.7249 5.39619 15.8017 5.41391 15.8785 5.41391C16.0705 5.41391 16.2536 5.30759 16.3422 5.12446C16.4692 4.8675 16.3629 4.55737 16.1059 4.43332C15.6954 4.23248 15.2671 4.06117 14.83 3.92826C14.5582 3.84261 14.2688 3.99915 14.1831 4.27088C14.0975 4.54261 14.254 4.8291 14.5258 4.91476Z" fill="#1D0E23"/>
</svg>
