<svg width="35" height="25" viewBox="0 0 35 25" fill="none" xmlns="http://www.w3.org/2000/svg">
<path d="M5.85702 23.5165H4.3566C4.0701 23.5165 3.83972 23.7469 3.83972 24.0334C3.83972 24.3199 4.0701 24.5502 4.3566 24.5502H5.85702C6.14352 24.5502 6.3739 24.3199 6.3739 24.0334C6.3739 23.7469 6.14352 23.5165 5.85702 23.5165Z" fill="#1D0E23"/>
<path d="M34.9705 23.862L33.1481 18.6371C33.0743 18.4304 32.8793 18.2915 32.6608 18.2915H29.1903L28.7236 16.9477C28.6291 16.6789 28.3337 16.5371 28.065 16.6287C27.7962 16.7232 27.6544 17.0186 27.746 17.2873L28.0945 18.2886H18.2266L19.6886 14.0975H26.6325L26.8835 14.8152C26.9781 15.084 27.2705 15.2287 27.5422 15.1342C27.811 15.0397 27.9527 14.7443 27.8612 14.4755L27.489 13.4122C27.4152 13.2055 27.2202 13.0667 27.0017 13.0667H23.5283L21.827 8.18438C21.7532 7.97762 21.5582 7.83881 21.3397 7.83881H13.6603C13.4418 7.83881 13.2439 7.97762 13.173 8.18438L12.7683 9.34218C12.6738 9.61096 12.8156 9.90632 13.0873 10.0008C13.3561 10.0953 13.6515 9.95357 13.746 9.68184L14.0295 8.86961H20.9734L22.4354 13.0607H19.3224H15.6776H12.5675L12.9131 12.0713C13.0076 11.8025 12.8658 11.5072 12.5941 11.4126C12.3253 11.3181 12.0299 11.4599 11.9354 11.7316L11.4717 13.0637H7.9983C7.77974 13.0637 7.58185 13.2025 7.51096 13.4093L5.8097 18.2886H2.33923C2.12067 18.2886 1.92278 18.4274 1.85189 18.6342L0.0295275 23.862C-0.0265907 24.0215 -8.39267e-06 24.1958 0.09746 24.3316C0.194928 24.4675 0.351468 24.5502 0.519823 24.5502H2.3156C2.6021 24.5502 2.83248 24.3198 2.83248 24.0333C2.83248 23.7468 2.6021 23.5164 2.3156 23.5164H1.24345L2.70548 19.3253H6.17889H9.65231L11.1143 23.5164H7.827C7.5405 23.5164 7.31012 23.7468 7.31012 24.0333C7.31012 24.3198 7.5405 24.5502 7.827 24.5502H34.4831C34.6515 24.5502 34.808 24.4705 34.9055 24.3316C35.0029 24.1928 35.0266 24.0186 34.9705 23.862ZM23.162 22.462L22.0692 19.3223H24.2578L23.162 22.462ZM17.5 17.2371L16.4072 14.0975H18.5958L17.5 17.2371ZM6.90548 18.2886L8.3675 14.0975H15.3114L16.7734 18.2886H6.90548ZM10.7451 19.3223H12.9337L11.8409 22.462L10.7451 19.3223ZM12.5675 23.5164L14.0295 19.3253H17.5029H20.9764L22.4384 23.5164H12.5675ZM23.8886 23.5164L25.3506 19.3253H28.824H32.2975L33.7595 23.5164H23.8886Z" fill="#1D0E23"/>
<path d="M19.3224 10.6447C19.6089 10.6447 19.8393 10.4143 19.8393 10.1278C19.8393 9.84134 19.6089 9.61096 19.3224 9.61096H17.6005C17.314 9.61096 17.0836 9.84134 17.0836 10.1278C17.0836 10.4143 17.314 10.6447 17.6005 10.6447H19.3224Z" fill="#1D0E23"/>
<path d="M17.5 4.71983C17.7865 4.71983 18.0169 4.48945 18.0169 4.20295V0.516878C18.0169 0.23038 17.7865 0 17.5 0C17.2135 0 16.9832 0.23038 16.9832 0.516878V4.20295C16.9832 4.48945 17.2135 4.71983 17.5 4.71983Z" fill="#1D0E23"/>
<path d="M22.4532 5.18944C22.5123 5.21012 22.5743 5.22193 22.6334 5.22193C22.8431 5.22193 23.041 5.09198 23.1177 4.88523L24.3967 1.42658C24.4971 1.1578 24.3583 0.862441 24.0924 0.762019C23.8266 0.66455 23.5283 0.800415 23.4279 1.06624L22.146 4.52489C22.0486 4.79366 22.1844 5.08902 22.4532 5.18944Z" fill="#1D0E23"/>
<path d="M27.0461 6.1641C27.1376 6.22613 27.241 6.25862 27.3414 6.25862C27.5039 6.25862 27.6634 6.18183 27.7638 6.04005L29.8844 3.02149C30.0499 2.78815 29.9937 2.46621 29.7574 2.30081C29.5241 2.13541 29.2022 2.19448 29.0368 2.42782L26.9161 5.44638C26.7566 5.67972 26.8127 6.00166 27.0461 6.1641Z" fill="#1D0E23"/>
<path d="M11.8823 4.88227C11.9591 5.09198 12.157 5.21898 12.3667 5.21898C12.4258 5.21898 12.4878 5.20717 12.5469 5.18649C12.8156 5.08607 12.9515 4.79071 12.8511 4.52194L11.5722 1.06624C11.4747 0.797464 11.1764 0.661599 10.9076 0.762021C10.6388 0.862443 10.503 1.1578 10.6034 1.42658L11.8823 4.88227Z" fill="#1D0E23"/>
<path d="M7.23337 6.04011C7.33379 6.18188 7.49328 6.25867 7.65573 6.25867C7.75911 6.25867 7.86248 6.22914 7.95109 6.16416C8.18442 5.99876 8.24054 5.67681 8.07809 5.44348L5.96037 2.42787C5.79793 2.19454 5.47303 2.13842 5.2397 2.30086C5.00636 2.46627 4.95025 2.78821 5.11269 3.02154L7.23337 6.04011Z" fill="#1D0E23"/>
</svg>
