<svg width="35" height="35" viewBox="0 0 35 35" fill="none" xmlns="http://www.w3.org/2000/svg">
<path d="M28.8033 13.0312C29.1636 13.2675 29.5151 13.5274 29.8489 13.8021C29.9463 13.8819 30.0615 13.9203 30.1797 13.9203C30.3273 13.9203 30.475 13.8553 30.5784 13.7342C30.7615 13.5156 30.729 13.1878 30.5105 13.0076C30.1472 12.7063 29.7632 12.4228 29.3704 12.1658C29.1311 12.0093 28.8122 12.0772 28.6556 12.3165C28.4991 12.5527 28.5641 12.8747 28.8033 13.0312Z" fill="#1D0E23"/>
<path d="M32.0405 14.5198C31.8544 14.3013 31.5295 14.2776 31.311 14.4608C31.0924 14.6468 31.0688 14.9717 31.2519 15.1903C33.0034 17.246 33.9662 19.8688 33.9662 22.5743C33.9662 28.8565 28.8565 33.9662 22.5743 33.9662C18.8823 33.9662 15.403 32.1409 13.2793 29.1519C13.9025 29.1076 14.5228 29.0219 15.1283 28.8861C16.992 31.0835 19.6857 32.3418 22.5713 32.3418C27.9587 32.3418 32.3388 27.9616 32.3388 22.5743C32.3388 17.8397 28.889 13.7637 24.2608 12.9515C24.0717 12.3549 23.8384 11.7789 23.5637 11.2266C24.7954 11.3329 25.9886 11.6283 27.1198 12.1245C27.1878 12.154 27.2557 12.1688 27.3266 12.1688C27.5245 12.1688 27.7165 12.0536 27.8021 11.8587C27.9173 11.5958 27.7962 11.2916 27.5333 11.1793C26.0861 10.5473 24.5502 10.2076 22.9671 10.1574C21.2658 7.42532 18.519 5.40211 15.211 4.64895L16.9122 2.38354C17.054 2.19451 17.0481 1.93165 16.9004 1.74852L15.6451 0.194937C15.5536 0.0708861 15.4059 0 15.2494 0H9.60211C9.44557 0 9.29789 0.0708861 9.20042 0.191983L7.94515 1.74557C7.79747 1.92869 7.79156 2.19156 7.93333 2.38059L9.6346 4.64599C4.00506 5.92785 0 10.8928 0 16.7586C0 23.484 5.37257 28.9747 12.0506 29.1755C14.3131 32.773 18.3152 35 22.5743 35C29.4266 35 35 29.4266 35 22.5743C35 19.6236 33.9485 16.7616 32.0405 14.5198ZM15.8489 2.08228L13.681 4.97089L14.4637 2.21224C14.4903 2.11772 14.4903 2.01435 14.4608 1.91983L14.192 1.03376H15.0042L15.8489 2.08228ZM11.7405 1.03376H13.108L13.427 2.07637L12.4257 5.61181L11.4245 2.07637L11.7405 1.03376ZM9.85021 1.03376H10.6624L10.3937 1.91983C10.3641 2.01435 10.3641 2.11477 10.3907 2.21224L11.1734 4.97089L9.00549 2.08228L9.85021 1.03376ZM1.03376 16.7586C1.03376 11.2236 4.92067 6.56582 10.3198 5.5616L11.4333 7.04726C7.89494 7.40464 4.81139 9.65823 3.41139 12.9958C3.30211 13.2586 3.42616 13.5629 3.68903 13.6722C3.9519 13.7814 4.25612 13.6574 4.3654 13.3945C5.73291 10.1308 8.8962 8.02489 12.4257 8.02489C14.9156 8.02489 17.1603 9.07342 18.7553 10.7511C13.6485 12.3932 10.1485 17.1397 10.1485 22.5772C10.1485 23.4899 10.2549 24.3907 10.4498 25.2679C6.58354 24.3671 3.69198 20.8937 3.69198 16.7586C3.69198 16.3983 3.71266 16.038 3.75696 15.6865C3.79241 15.403 3.59156 15.146 3.30802 15.1105C3.02447 15.0751 2.76751 15.2759 2.73207 15.5595C2.68186 15.9553 2.65823 16.357 2.65823 16.7586C2.65823 22.143 7.0384 26.5262 12.4257 26.5262C17.8131 26.5262 22.1932 22.143 22.1932 16.7586C22.1932 11.708 18.3418 7.54051 13.4211 7.0384L14.5316 5.55865C19.9308 6.56582 23.8177 11.2236 23.8177 16.7586C23.8177 19.2633 23.0232 21.638 21.5169 23.6257C21.3456 23.8532 21.3899 24.1781 21.6173 24.3494C21.7118 24.4203 21.8211 24.4527 21.9274 24.4527C22.084 24.4527 22.2376 24.3819 22.3409 24.2489C23.9831 22.0781 24.8515 19.4878 24.8515 16.7586C24.8515 15.8342 24.7511 14.9333 24.562 14.0679C28.4578 14.9776 31.308 18.5042 31.308 22.5743C31.308 27.3886 27.3886 31.308 22.5743 31.308C20.1582 31.308 17.8928 30.3215 16.2447 28.5819C17.7865 28.0827 19.2308 27.2852 20.4802 26.2219C20.6987 26.0359 20.7224 25.711 20.5392 25.4924C20.3532 25.2768 20.0283 25.2502 19.8097 25.4333C17.754 27.1848 15.1312 28.1477 12.4257 28.1477C6.14346 28.1506 1.03376 23.0409 1.03376 16.7586ZM14.2747 25.2945C13.9882 24.4203 13.8405 23.5076 13.8405 22.5743C13.8405 18.4215 16.7114 14.9008 20.7253 14.0384C21.0059 14.8949 21.1595 15.8076 21.1595 16.7586C21.1595 20.9409 18.2059 24.4439 14.2747 25.2945ZM12.8068 22.5743C12.8068 23.5608 12.9544 24.5266 13.2409 25.454C12.9722 25.4776 12.7004 25.4924 12.4257 25.4924C12.1333 25.4924 11.8439 25.4776 11.5574 25.4481C11.3122 24.5177 11.1823 23.5549 11.1823 22.5743C11.1823 17.4468 14.5759 12.9869 19.473 11.6076C19.8068 12.0624 20.0962 12.5498 20.3384 13.0667C15.9376 14.0916 12.8068 17.9873 12.8068 22.5743Z" fill="#1D0E23"/>
</svg>
