<svg width="20" height="35" viewBox="0 0 20 35" fill="none" xmlns="http://www.w3.org/2000/svg">
<path d="M18.8764 15.654H17.8278C17.5384 14.2717 16.93 13.0046 16.0852 11.9325L15.8253 7.573C15.8076 7.2865 15.5595 7.07384 15.2789 7.08861C14.9954 7.10633 14.7768 7.35148 14.7945 7.63502L14.9806 10.7599C14.5641 10.3907 14.1152 10.0599 13.6367 9.77046V1.03376H14.4046L14.4814 2.31561C14.4992 2.59916 14.7443 2.81477 15.0278 2.8C15.3114 2.78228 15.53 2.53713 15.5122 2.25359L15.4059 0.484388C15.3882 0.212658 15.1608 0 14.889 0H3.1308C2.85612 0 2.63165 0.212658 2.61392 0.487342L2.10886 8.9789C2.09114 9.26245 2.3097 9.5076 2.59325 9.52532C2.60506 9.52532 2.61392 9.52532 2.62574 9.52532C2.89747 9.52532 3.12489 9.31266 3.14262 9.03798L3.61814 1.03376H4.38608V9.77046C1.76034 11.3477 0 14.2215 0 17.5C0 19.6 0.723629 21.5316 1.93165 23.0646L2.61392 34.5127C2.63165 34.7844 2.85612 35 3.1308 35H14.889C15.1637 35 15.3882 34.7873 15.4059 34.5127L16.0852 23.0646C16.93 21.9924 17.5384 20.7283 17.8278 19.343H18.8764C19.1629 19.343 19.3933 19.1127 19.3933 18.8262V16.1679C19.3933 15.8844 19.1629 15.654 18.8764 15.654ZM5.41983 1.03376H12.6V9.24177C11.4983 8.76034 10.2844 8.49156 9.00844 8.49156C7.73249 8.49156 6.51857 8.76034 5.41983 9.23882V1.03376ZM9.00844 9.52532C13.4063 9.52532 16.9831 13.1021 16.9831 17.5C16.9831 21.8979 13.4063 25.4747 9.00844 25.4747C4.61055 25.4747 1.03376 21.8979 1.03376 17.5C1.03376 13.1021 4.61055 9.52532 9.00844 9.52532ZM3.03924 24.2371C3.4557 24.6063 3.9076 24.9401 4.38608 25.2266V28.13C4.38608 28.4165 4.61646 28.6468 4.90295 28.6468C5.18945 28.6468 5.41983 28.4165 5.41983 28.13V25.7582C6.52152 26.2397 7.73249 26.5055 9.00844 26.5055C10.2844 26.5055 11.4983 26.2367 12.6 25.7553V33.9662H5.41983V30.7409C5.41983 30.4544 5.18945 30.2241 4.90295 30.2241C4.61646 30.2241 4.38608 30.4544 4.38608 30.7409V33.9662H3.61814L3.03924 24.2371ZM14.4017 33.9662H13.6338V25.2266C14.1122 24.9401 14.5641 24.6063 14.9776 24.2371L14.4017 33.9662ZM18.3595 18.3122H17.9785C18.0021 18.0435 18.0169 17.7747 18.0169 17.5C18.0169 17.2253 18.0021 16.9565 17.9785 16.6878H18.3595V18.3122Z" fill="#1D0E23"/>
<path d="M11.3418 31.4941C11.6283 31.4941 11.8587 31.2637 11.8587 30.9772V29.0574C11.8587 28.7709 11.6283 28.5405 11.3418 28.5405C11.0553 28.5405 10.825 28.7709 10.825 29.0574V30.9772C10.825 31.2608 11.0583 31.4941 11.3418 31.4941Z" fill="#1D0E23"/>
<path d="M15.0928 3.94601C14.8093 3.96373 14.5907 4.20888 14.6084 4.49243L14.6882 5.82449C14.7059 6.09918 14.9333 6.31184 15.2051 6.31184C15.2169 6.31184 15.2257 6.31184 15.2375 6.31184C15.5211 6.29412 15.7396 6.04897 15.7219 5.76542L15.6422 4.43336C15.6215 4.14686 15.3705 3.92829 15.0928 3.94601Z" fill="#1D0E23"/>
<path d="M9.00838 24.7363C12.9987 24.7363 16.2447 21.4903 16.2447 17.5C16.2447 13.5097 12.9987 10.2637 9.00838 10.2637C5.01809 10.2637 1.77209 13.5097 1.77209 17.5C1.77209 21.4903 5.01809 24.7363 9.00838 24.7363ZM3.17505 16.9831H2.83243C2.94172 15.6599 3.46745 14.4578 4.27674 13.4979L4.51893 13.7401C4.61935 13.8405 4.75226 13.8907 4.88518 13.8907C5.01809 13.8907 5.151 13.8405 5.25142 13.7401C5.45226 13.5393 5.45226 13.2114 5.25142 13.0106L5.00923 12.7684C5.96619 11.9591 7.17125 11.4334 8.49446 11.3241V11.6667C8.49446 11.9532 8.72484 12.1836 9.01134 12.1836C9.29783 12.1836 9.52821 11.9532 9.52821 11.6667V11.3241C10.8514 11.4334 12.0535 11.9591 13.0134 12.7684L12.7713 13.0106C12.5704 13.2114 12.5704 13.5393 12.7713 13.7401C12.8717 13.8405 13.0046 13.8907 13.1375 13.8907C13.2704 13.8907 13.4033 13.8405 13.5037 13.7401L13.7459 13.4979C14.5582 14.4549 15.081 15.6599 15.1902 16.9831H14.8476C14.5611 16.9831 14.3307 17.2135 14.3307 17.5C14.3307 17.7865 14.5552 18.0169 14.8417 18.0169H15.1843C15.0751 19.3401 14.5493 20.5422 13.74 21.5021L13.4978 21.2599C13.297 21.0591 12.9691 21.0591 12.7683 21.2599C12.5675 21.4608 12.5675 21.7886 12.7683 21.9895L13.0105 22.2317C12.0535 23.0439 10.8485 23.5667 9.52526 23.676V23.3334C9.52526 23.0469 9.29488 22.8165 9.00838 22.8165C8.72188 22.8165 8.4915 23.0469 8.4915 23.3334V23.676C7.1683 23.5667 5.96619 23.0409 5.00627 22.2317L5.24847 21.9895C5.44931 21.7886 5.44931 21.4608 5.24847 21.2599C5.04762 21.0591 4.71977 21.0591 4.51598 21.2599L4.27378 21.5021C3.46155 20.5452 2.93876 19.3401 2.82948 18.0169H3.17209C3.45859 18.0169 3.68897 17.7865 3.68897 17.5C3.68897 17.2135 3.46155 16.9831 3.17505 16.9831Z" fill="#1D0E23"/>
<path d="M6.59827 18.0169H7.70882C7.91557 18.5338 8.42064 18.903 9.01136 18.903C9.7852 18.903 10.4143 18.2738 10.4143 17.5C10.4143 17.3021 10.373 17.1131 10.2991 16.9447L12.1835 15.0603C12.3844 14.8595 12.3844 14.5317 12.1835 14.3308C11.9827 14.13 11.6548 14.13 11.454 14.3308L9.56958 16.2152C9.39828 16.1414 9.2122 16.1 9.01431 16.1C8.42359 16.1 7.91853 16.4692 7.71178 16.9861H6.60123C6.31473 16.9861 6.08435 17.2165 6.08435 17.503C6.08435 17.7895 6.31178 18.0169 6.59827 18.0169ZM9.0084 17.1308C9.2122 17.1308 9.3776 17.2962 9.3776 17.5C9.3776 17.7038 9.2122 17.8692 9.0084 17.8692C8.8046 17.8692 8.6392 17.7038 8.6392 17.5C8.6392 17.2962 8.8046 17.1308 9.0084 17.1308Z" fill="#1D0E23"/>
</svg>
